<svg preserveAspectRatio="none" width="100%" height="100%" overflow="visible" style="display: block;" viewBox="0 0 19 15" fill="none" xmlns="http://www.w3.org/2000/svg">
<path id="Vector" d="M16.0844 1.24343C14.8734 0.667927 13.5748 0.243898 12.217 0.00101906C12.1923 -0.00367016 12.1675 0.00805289 12.1548 0.0314606C11.9878 0.339143 11.8028 0.740494 11.6732 1.05598C10.2129 0.829513 8.75997 0.829513 7.32955 1.05598C7.19996 0.733499 7.00825 0.339143 6.84048 0.0314606C6.82775 0.00882161 6.80304 -0.00290144 6.77832 0.00101906C5.42131 0.243091 4.1227 0.667119 2.91093 1.24343C2.90043 1.24812 2.89145 1.25592 2.88547 1.26607C0.422296 5.0776 -0.252502 8.79546 0.0785144 12.4672C0.0799987 12.4852 0.0897585 12.5023 0.103229 12.5132C1.72836 13.7494 3.30262 14.4998 4.84759 14.9973C4.87231 15.0051 4.89851 14.9957 4.91424 14.9746C5.2797 14.4577 5.60548 13.9126 5.8848 13.3394C5.90128 13.3059 5.88554 13.2661 5.85185 13.2528C5.3351 13.0497 4.84307 12.8022 4.36974 12.5211C4.33229 12.4985 4.32929 12.443 4.36376 12.4164C4.46336 12.3391 4.563 12.2587 4.65811 12.1775C4.67533 12.1626 4.69931 12.1595 4.71953 12.1689C7.829 13.6393 11.1954 13.6393 14.2682 12.1689C14.2884 12.1587 14.3124 12.1619 14.3303 12.1767C14.4255 12.2579 14.5251 12.3391 14.6254 12.4164C14.6598 12.4429 14.6576 12.4984 14.6202 12.5211C14.1468 12.8076 13.6548 13.0497 13.1373 13.252C13.1036 13.2652 13.0886 13.3058 13.1051 13.3394C13.3905 13.9118 13.7163 14.4569 14.075 14.9738C14.09 14.9957 14.1169 15.0051 14.1416 14.9972C15.6941 14.4998 17.2683 13.7494 18.8935 12.5132C18.9077 12.5023 18.9167 12.4859 18.9182 12.4679C19.3144 8.22299 18.2546 4.53561 16.109 1.2668C16.1038 1.25592 16.0948 1.24812 16.0844 1.24343ZM6.34923 10.2315C5.41307 10.2315 4.64167 9.3413 4.64167 8.24802C4.64167 7.15474 5.39808 6.26455 6.34923 6.26455C7.3078 6.26455 8.07173 7.16258 8.05674 8.24802C8.05674 9.3413 7.3003 10.2315 6.34923 10.2315ZM12.6625 10.2315C11.7264 10.2315 10.955 9.3413 10.955 8.24802C10.955 7.15474 11.7114 6.26455 12.6625 6.26455C13.6212 6.26455 14.385 7.16258 14.3701 8.24802C14.3701 9.3413 13.6212 10.2315 12.6625 10.2315Z" fill="var(--fill-0, white)"/>
</svg>
