<svg preserveAspectRatio="none" width="100%" height="100%" overflow="visible" style="display: block;" viewBox="0 0 20 20" fill="none" xmlns="http://www.w3.org/2000/svg">
<g id="Group 23">
<path id="Vector" fill-rule="evenodd" clip-rule="evenodd" d="M1.95354 9.99978C4.63968 7.31364 7.32583 4.62749 10.012 1.94135V0L8.64449 1.36749L0.0244153 9.98757H1.96576L1.95354 9.99978Z" fill="url(#paint0_linear_2039_572)"/>
<path id="Vector_2" fill-rule="evenodd" clip-rule="evenodd" d="M10.0002 1.95322C7.31403 4.63937 4.62788 7.32551 1.94174 10.0117H3.88312L10.0002 3.89457V1.95322Z" fill="url(#paint1_linear_2039_572)"/>
<path id="Vector_3" fill-rule="evenodd" clip-rule="evenodd" d="M10.0002 3.89457L16.1173 10.0117H18.0587C15.3725 7.32551 12.6864 4.63937 10.0002 1.95322V3.89457Z" fill="url(#paint2_linear_2039_572)"/>
<path id="Vector_4" fill-rule="evenodd" clip-rule="evenodd" d="M10.0002 1.95356C12.6864 4.6397 15.3725 7.32584 18.0587 10.012H20L11.3799 1.39191L10.0124 0.0244153V1.96576L10.0002 1.95356Z" fill="url(#paint3_linear_2039_572)"/>
<path id="Vector_5" fill-rule="evenodd" clip-rule="evenodd" d="M16.1173 10.0002L10.0002 16.1173V18.0587C12.6864 15.3725 15.3725 12.6864 18.0587 10.0002H16.1173Z" fill="url(#paint4_linear_2039_572)"/>
<path id="Vector_6" fill-rule="evenodd" clip-rule="evenodd" d="M18.0587 10.0002C15.3725 12.6864 12.6864 15.3725 10.0002 18.0587V20L20 10.0002H18.0587Z" fill="url(#paint5_linear_2039_572)"/>
<path id="Vector_7" fill-rule="evenodd" clip-rule="evenodd" d="M10.0002 16.1173L3.88312 10.0002H1.94174C4.62788 12.6864 7.31403 15.3725 10.0002 18.0587V16.1173Z" fill="url(#paint6_linear_2039_572)"/>
<path id="Vector_8" fill-rule="evenodd" clip-rule="evenodd" d="M9.99978 18.0587C7.31364 15.3725 4.62749 12.6864 1.94134 10.0002H0L9.99978 20V18.0587Z" fill="url(#paint7_linear_2039_572)"/>
<path id="Vector_9" fill-rule="evenodd" clip-rule="evenodd" d="M6.67865 14.7373L1.70931 10.1708L0.329607 9.99991L1.74594 9.80456L8.53455 3.41886L2.25873 9.99991L6.67865 14.7373Z" fill="url(#paint8_radial_2039_572)"/>
<path id="Vector_10" fill-rule="evenodd" clip-rule="evenodd" d="M5.89773 9.99949L10.0002 14.1142L14.1149 9.99949L10.0002 5.89702L5.89773 9.99949Z" fill="var(--fill-0, #73AB0A)"/>
<g id="Vector_11">
<path fill-rule="evenodd" clip-rule="evenodd" d="M5.89738 9.99983L9.99983 5.89736V3.89496L3.89496 9.99983H5.89738Z" fill="var(--fill-0, #73AB0A)"/>
<path fill-rule="evenodd" clip-rule="evenodd" d="M5.89738 9.99983L9.99983 5.89736V3.89496L3.89496 9.99983H5.89738Z" fill="var(--fill-1, white)" fill-opacity="0.3"/>
</g>
<g id="Vector_12">
<path fill-rule="evenodd" clip-rule="evenodd" d="M14.1149 10.0002L10.0002 14.1149V16.1173L16.1173 10.0002H14.1149Z" fill="var(--fill-0, #73AB0A)"/>
<path fill-rule="evenodd" clip-rule="evenodd" d="M14.1149 10.0002L10.0002 14.1149V16.1173L16.1173 10.0002H14.1149Z" fill="var(--fill-1, black)" fill-opacity="0.2"/>
</g>
<g id="Vector_13">
<path fill-rule="evenodd" clip-rule="evenodd" d="M10.0002 5.89736L14.1149 9.99983H16.1173L10.0002 3.89496V5.89736Z" fill="var(--fill-0, #73AB0A)"/>
<path fill-rule="evenodd" clip-rule="evenodd" d="M10.0002 5.89736L14.1149 9.99983H16.1173L10.0002 3.89496V5.89736Z" fill="var(--fill-1, black)" fill-opacity="0.1"/>
</g>
<g id="Vector_14">
<path fill-rule="evenodd" clip-rule="evenodd" d="M9.99983 14.1149L5.89738 10.0002H3.89496L9.99983 16.1173V14.1149Z" fill="var(--fill-0, #73AB0A)"/>
<path fill-rule="evenodd" clip-rule="evenodd" d="M9.99983 14.1149L5.89738 10.0002H3.89496L9.99983 16.1173V14.1149Z" fill="var(--fill-1, black)" fill-opacity="0.1"/>
</g>
</g>
<defs>
<linearGradient id="paint0_linear_2039_572" x1="5.98276" y1="5.98277" x2="5.00598" y2="5.006" gradientUnits="userSpaceOnUse">
<stop stop-color="#EFE1BB"/>
<stop offset="1" stop-color="#EDD4AE"/>
</linearGradient>
<linearGradient id="paint1_linear_2039_572" x1="6.94773" y1="6.94701" x2="5.98316" y2="5.98244" gradientUnits="userSpaceOnUse">
<stop stop-color="#523329"/>
<stop offset="1" stop-color="#A27048"/>
</linearGradient>
<linearGradient id="paint2_linear_2039_572" x1="14.0294" y1="5.98244" x2="13.0649" y2="6.94701" gradientUnits="userSpaceOnUse">
<stop stop-color="#A27048"/>
<stop offset="1" stop-color="#523329"/>
</linearGradient>
<linearGradient id="paint3_linear_2039_572" x1="15.0062" y1="5.00599" x2="14.0294" y2="5.98277" gradientUnits="userSpaceOnUse">
<stop stop-color="#E2BB7E"/>
<stop offset="1" stop-color="#ECE2A9"/>
</linearGradient>
<linearGradient id="paint4_linear_2039_572" x1="14.0294" y1="14.0294" x2="13.0649" y2="13.0649" gradientUnits="userSpaceOnUse">
<stop stop-color="#EFE1BB"/>
<stop offset="1" stop-color="#EDD4AE"/>
</linearGradient>
<linearGradient id="paint5_linear_2039_572" x1="15.0062" y1="15.0062" x2="14.0294" y2="14.0294" gradientUnits="userSpaceOnUse">
<stop stop-color="#523329"/>
<stop offset="1" stop-color="#A27048"/>
</linearGradient>
<linearGradient id="paint6_linear_2039_572" x1="6.94773" y1="13.0649" x2="5.98316" y2="14.0294" gradientUnits="userSpaceOnUse">
<stop stop-color="#8C6C51"/>
<stop offset="1" stop-color="#DEC2A0"/>
</linearGradient>
<linearGradient id="paint7_linear_2039_572" x1="5.98278" y1="14.0294" x2="5.006" y2="15.0062" gradientUnits="userSpaceOnUse">
<stop stop-color="#A27048"/>
<stop offset="1" stop-color="#523329"/>
</linearGradient>
<radialGradient id="paint8_radial_2039_572" cx="0" cy="0" r="1" gradientUnits="userSpaceOnUse" gradientTransform="translate(1.72152 7.64343) scale(15.7262 15.7261)">
<stop stop-color="#EFE5B8"/>
<stop offset="1"/>
</radialGradient>
</defs>
</svg>
