<svg width="526.59" height="208.607" viewBox="0 0 526.59 208.607" fill="none" xmlns="http://www.w3.org/2000/svg">
<g id="Group 21">
<g id="Vector">
<path d="M526.59 24.015C524.76 25.2817 520.256 30.7709 520.256 46.957V97.908C520.256 114.094 524.76 119.02 526.59 120.85V121.695H496.048L459.031 30.7709H457.764V97.4858C457.764 113.672 462.268 118.598 463.957 120.428V121.272H430.74V120.428C432.429 119.02 436.933 113.672 436.933 97.4858V46.957C436.933 30.7709 432.429 25.8447 430.74 24.015V23.0298H462.69L498.3 110.998H499.566V46.957C499.566 30.7709 495.062 25.8447 493.233 24.015V23.0298H526.59V24.015Z" fill="var(--fill-0, white)"/>
<path d="M310.922 20.4963C345.547 20.4963 362.718 41.7493 362.718 72.2918C362.718 104.382 344.702 122.821 314.863 124.087C313.597 124.087 312.189 124.087 310.922 124.087C309.515 124.087 308.107 124.087 306.841 124.087C276.58 122.398 259.127 104.382 259.127 72.2918C259.127 41.7493 276.158 20.4963 310.922 20.4963ZM310.922 113.813C334.709 113.813 339.635 101.567 339.635 72.2918C339.635 43.0161 334.287 30.4894 310.922 30.4894C287.417 30.4894 282.069 43.5791 282.069 72.2918C282.069 101.145 287.417 113.813 310.922 113.813Z" fill="var(--fill-0, white)"/>
<path d="M191.092 24.4373C189.403 25.704 184.899 31.1932 184.899 47.3793V97.908C184.899 114.094 189.403 119.02 191.092 120.85V121.695H157.875V120.85C159.564 119.443 164.068 114.094 164.068 97.908V47.3793C164.068 31.1932 159.564 26.267 157.875 24.4373V23.452H191.092V24.4373Z" fill="var(--fill-0, white)"/>
</g>
<g id="Frame 39">
<path id="Rectangle 2" d="M0 182.847L67.5586 180.518C68.8766 180.472 69.9699 181.528 69.9699 182.847C69.9699 184.166 68.8766 185.222 67.5586 185.177L0 182.847Z" fill="var(--fill-0, white)"/>
<g id="Vector_2">
<path d="M416.617 158.837C415.707 159.467 413.467 162.197 413.467 170.247V195.587C413.467 203.637 415.707 206.087 416.617 206.997V207.417H401.427L383.017 162.197H382.387V195.377C382.387 203.427 384.627 205.877 385.467 206.787V207.207H368.947V206.787C369.787 206.087 372.027 203.427 372.027 195.377V170.247C372.027 162.197 369.787 159.747 368.947 158.837V158.347H384.837L402.547 202.097H403.177V170.247C403.177 162.197 400.937 159.747 400.027 158.837V158.347H416.617V158.837Z" fill="var(--fill-0, white)"/>
<path d="M337.417 158.557L322.647 195.587C319.287 203.637 320.197 206.087 321.037 206.997V207.417H308.087L301.997 188.377H301.367L298.427 195.587C295.067 203.637 295.977 206.087 296.887 206.997V207.417H283.867L264.197 158.557H277.147V159.047C276.237 159.677 275.607 162.407 278.757 170.457L291.707 202.307H292.407L300.037 183.477L289.957 158.557H302.697V159.047C301.787 159.677 300.877 162.407 304.237 170.457L305.847 174.307H306.477L308.087 170.457C311.447 162.407 310.537 159.957 309.627 159.047V158.557H316.137L307.597 179.207L315.437 202.307H316.137L329.157 170.457C332.237 162.407 331.607 159.957 330.697 159.047V158.557H337.417Z" fill="var(--fill-0, white)"/>
<path d="M208.349 157.087C225.569 157.087 234.109 167.657 234.109 182.847C234.109 198.807 225.149 207.977 210.309 208.607C209.679 208.607 208.979 208.607 208.349 208.607C207.649 208.607 206.949 208.607 206.319 208.607C191.269 207.767 182.589 198.807 182.589 182.847C182.589 167.657 191.059 157.087 208.349 157.087ZM208.349 203.497C220.179 203.497 222.629 197.407 222.629 182.847C222.629 168.287 219.969 162.057 208.349 162.057C196.659 162.057 193.999 168.567 193.999 182.847C193.999 197.197 196.659 203.497 208.349 203.497Z" fill="var(--fill-0, white)"/>
<path d="M109.97 158.137H152.04V166.677H151.62C150.71 165.767 148.26 163.527 140.21 163.527H136.15V195.797C136.15 203.637 138.39 206.087 139.3 206.997V207.487H122.71V206.997C123.62 206.087 125.86 203.637 125.86 195.797V163.527H121.8C113.75 163.527 111.09 165.767 110.39 166.677H109.97V158.137Z" fill="var(--fill-0, white)"/>
</g>
<path id="Rectangle 3" d="M526.587 182.847L459.029 180.518C457.711 180.472 456.617 181.528 456.617 182.847C456.617 184.166 457.711 185.222 459.029 185.177L526.587 182.847Z" fill="var(--fill-0, white)"/>
</g>
<g id="Group 22">
<g id="Group 19">
<path id="Vector_3" fill-rule="evenodd" clip-rule="evenodd" d="M47.8094 1.91212L46.4965 0.161596C46.4157 0.0538712 46.2945 9.03282e-06 46.1733 9.05991e-06C46.0521 9.08699e-06 45.931 0.0538713 45.8502 0.161596L44.5373 1.91212C44.4295 2.05575 44.4295 2.25325 44.5373 2.39688L45.3584 3.49177L44.214 24.0909L47.9371 24.3944L46.987 3.49336L47.8094 2.39688C47.9171 2.25325 47.9171 2.05575 47.8094 1.91212Z" fill="var(--fill-0, white)"/>
<path id="Vector 5" d="M45.7703 17.7072V6.80009C65.3627 6.80009 61.4131 18.6691 67.5845 19.727C74.6539 20.9389 77.0389 24.3608 77.0778 24.3726C77.0778 24.3726 70.2103 22.9588 67.1806 22.9588C58.4953 22.9588 60.7171 16.8993 51.6279 16.8993C48.0729 16.8993 46.2416 17.4379 45.7703 17.7072Z" fill="var(--fill-0, white)"/>
</g>
<path id="Subtract" d="M39.0781 23.956C40.2181 23.956 41.9944 23.9562 44.2139 24.0771L43.4551 37.745L38.498 39.5712V47.0439L31.0254 50.0741V41.995L24.1582 44.621V56.538L29.8135 59.9716V95.1161L46.1738 107.64L62.5352 95.1161V59.9716L68.1904 56.538V44.621L61.3232 41.995V50.0741L53.8496 47.0439V39.5712L48.5371 37.6132L47.9355 24.372C63.4007 25.998 90.874 33.9725 90.874 73.0771C90.8739 122.198 47.523 122.198 39.0781 122.198H0.794922V121.353C2.48398 119.946 6.98821 114.597 6.98828 98.412V47.8827C6.98825 31.6975 2.48407 26.7712 0.794922 24.9413V23.956H39.0781Z" fill="var(--fill-0, white)"/>
</g>
</g>
</svg>
