<svg width="51.6008" height="70.0003" viewBox="0 0 51.6008 70.0003" fill="none" xmlns="http://www.w3.org/2000/svg">
<g id="Group 22">
<g id="Group 19">
<path id="Vector" fill-rule="evenodd" clip-rule="evenodd" d="M26.9318 1.09534L26.1797 0.0925724C26.1335 0.0308635 26.064 9.04439e-06 25.9946 9.05991e-06C25.9252 9.07542e-06 25.8558 0.0308635 25.8095 0.0925724L25.0574 1.09534C24.9957 1.17762 24.9957 1.29075 25.0574 1.37303L25.5278 2.00023L24.8723 13.8002L27.005 13.9741L26.4607 2.00114L26.9318 1.37303C26.9935 1.29075 26.9935 1.17762 26.9318 1.09534Z" fill="var(--fill-0, white)"/>
<path id="Vector 5" d="M25.7641 10.1434V3.89536C36.9874 3.89536 34.7249 10.6944 38.2601 11.3004C42.3098 11.9947 43.676 13.9548 43.6982 13.9616C43.6982 13.9616 39.7643 13.1517 38.0287 13.1517C33.0535 13.1517 34.3262 9.68057 29.1195 9.68057C27.0831 9.68057 26.0341 9.98912 25.7641 10.1434Z" fill="var(--fill-0, white)"/>
</g>
<path id="Subtract" d="M21.9307 13.7229C22.5837 13.7229 23.6008 13.724 24.8721 13.7932L24.4375 21.6214L21.5977 22.6682V26.9485L17.3164 28.6848V24.0559L13.3828 25.5608V32.387L16.6221 34.3538V54.4866L25.9941 61.6604L35.3672 54.4866V34.3538L38.6064 32.387V25.5608L34.6729 24.0559V28.6848L30.3916 26.9485V22.6682L27.3477 21.5462L27.0029 13.9641C35.8619 14.8954 51.6006 19.4603 51.6006 41.8616C51.6004 69.9993 26.7689 70.0003 21.9307 70.0003H0V69.5159C0.96758 68.7095 3.54779 65.6458 3.54785 56.3743V27.429C3.54783 18.1577 0.967671 15.3357 0 14.2874V13.7229H21.9307Z" fill="var(--fill-0, white)"/>
</g>
</svg>
