<svg preserveAspectRatio="none" width="100%" height="100%" overflow="visible" style="display: block;" viewBox="0 0 16.0265 18" fill="none" xmlns="http://www.w3.org/2000/svg">
<g id="Group 7">
<path id="Vector" d="M11.8811 6.50205C13.0532 7.3347 14.4843 7.8245 16.0265 7.8245V4.87348C15.7304 4.87348 15.4467 4.84899 15.1506 4.78776V7.11429C13.6084 7.11429 12.1648 6.6245 11.0051 5.79184V11.8163C11.0051 14.8286 8.53758 17.2776 5.50252 17.2776C4.36746 17.2776 3.31875 16.9347 2.44278 16.3592C3.44213 17.3755 4.83629 18 6.37849 18C9.41355 18 11.8811 15.551 11.8811 12.5388V6.50205ZM12.9545 3.51429C12.3623 2.86532 11.9674 2.03266 11.8811 1.10205V0.72246H11.0545C11.2642 1.89797 11.9798 2.9143 12.9545 3.51429ZM4.36745 14.0327C4.03434 13.6041 3.84928 13.0653 3.84928 12.5143C3.84928 11.1306 4.972 10.0163 6.36616 10.0163C6.62525 10.0163 6.88433 10.0531 7.13109 10.1388V7.11429C6.84732 7.07756 6.55122 7.05307 6.25512 7.06531V9.41633C6.00836 9.34286 5.74927 9.29388 5.49018 9.29388C4.09603 9.29388 2.9733 10.4082 2.9733 11.7918C2.9733 12.7714 3.54083 13.6163 4.36745 14.0327Z" fill="var(--fill-0, #ED184F)"/>
<path id="Vector_2" d="M11.0052 5.77966C12.1772 6.61231 13.6084 7.10211 15.1506 7.10211V4.77558C14.287 4.59191 13.522 4.15109 12.9422 3.5266C11.9552 2.91436 11.2519 1.91027 11.0422 0.734765H8.88309V12.5388C8.88309 13.9103 7.74803 15.0246 6.36621 15.0246C5.55193 15.0246 4.824 14.6327 4.36751 14.0327C3.54089 13.6164 2.9857 12.7715 2.9857 11.8041C2.9857 10.4205 4.10842 9.30619 5.50257 9.30619C5.774 9.30619 6.02075 9.34292 6.26751 9.42864V7.07762C3.2818 7.13884 0.875957 9.56333 0.875957 12.5388C0.875957 14.0205 1.46816 15.3674 2.44284 16.3592C3.31881 16.947 4.36751 17.2776 5.50257 17.2776C8.53764 17.2776 11.0052 14.8286 11.0052 11.8164V5.77966Z" fill="var(--fill-0, white)"/>
<path id="Vector_3" d="M15.163 4.77551V4.13877C14.3857 4.13877 13.6208 3.91836 12.9545 3.51428C13.5467 4.15102 14.3117 4.59183 15.163 4.77551ZM11.0545 0.722449C11.0299 0.612245 11.0175 0.502041 11.0052 0.379592V0H8.01947V11.8041C8.01947 13.1755 6.88441 14.2898 5.50259 14.2898C5.09545 14.2898 4.71298 14.1918 4.36753 14.0204C4.82402 14.6204 5.55194 15.0122 6.36623 15.0122C7.74804 15.0122 8.88311 13.8979 8.88311 12.5265V0.722449H11.0545ZM6.25519 7.0653V6.39183C6.00844 6.3551 5.74934 6.34285 5.50259 6.34285C2.46753 6.34285 0 8.79183 0 11.8041C0 13.6898 0.974673 15.3673 2.44285 16.3469C1.46818 15.3673 0.875974 14.0204 0.875974 12.5265C0.875974 9.55101 3.26948 7.12652 6.25519 7.0653Z" fill="var(--fill-0, #58EFF3)"/>
</g>
</svg>
