<svg preserveAspectRatio="none" width="100%" height="100%" overflow="visible" style="display: block;" viewBox="0 0 20 20" fill="none" xmlns="http://www.w3.org/2000/svg">
<g id="instagram 1" clip-path="url(#clip0_2006_309)">
<path id="Vector" d="M10.0034 4.86499C7.16758 4.86499 4.87174 7.16332 4.87174 9.99666C4.87174 12.8325 7.17008 15.1283 10.0034 15.1283C12.8392 15.1283 15.1351 12.83 15.1351 9.99666C15.1351 7.16082 12.8367 4.86499 10.0034 4.86499V4.86499ZM10.0034 13.3275C8.16258 13.3275 6.67258 11.8367 6.67258 9.99666C6.67258 8.15666 8.16341 6.66582 10.0034 6.66582C11.8434 6.66582 13.3342 8.15666 13.3342 9.99666C13.3351 11.8367 11.8442 13.3275 10.0034 13.3275V13.3275Z" fill="var(--fill-0, white)"/>
<path id="Vector_2" d="M14.1229 0.0643684C12.2829 -0.0214649 7.72537 -0.0172982 5.8837 0.0643684C4.26537 0.140202 2.83787 0.531035 1.68704 1.68187C-0.236295 3.6052 0.00953834 6.19686 0.00953834 9.99769C0.00953834 13.8877 -0.207128 16.4194 1.68704 18.3135C3.61787 20.2435 6.24704 19.991 10.0029 19.991C13.8562 19.991 15.1862 19.9935 16.5487 19.466C18.4012 18.7469 19.7995 17.091 19.9362 14.1169C20.0229 12.276 20.0179 7.71936 19.9362 5.8777C19.7712 2.36687 17.887 0.237702 14.1229 0.0643684V0.0643684ZM17.0354 17.041C15.7745 18.3019 14.0254 18.1894 9.9787 18.1894C5.81204 18.1894 4.1412 18.251 2.92204 17.0285C1.51787 15.631 1.77204 13.3869 1.77204 9.98436C1.77204 5.3802 1.29954 2.06437 5.92037 1.8277C6.98204 1.7902 7.29454 1.7777 9.96704 1.7777L10.0045 1.8027C14.4454 1.8027 17.9295 1.3377 18.1387 5.9577C18.1862 7.01186 18.197 7.32853 18.197 9.99686C18.1962 14.1152 18.2745 15.796 17.0354 17.041V17.041Z" fill="var(--fill-0, white)"/>
<path id="Vector_3" d="M15.3385 5.86163C16.0008 5.86163 16.5377 5.32474 16.5377 4.66246C16.5377 4.00018 16.0008 3.4633 15.3385 3.4633C14.6762 3.4633 14.1393 4.00018 14.1393 4.66246C14.1393 5.32474 14.6762 5.86163 15.3385 5.86163Z" fill="var(--fill-0, white)"/>
</g>
<defs>
<clipPath id="clip0_2006_309">
<rect width="20" height="20" fill="white"/>
</clipPath>
</defs>
</svg>
