<svg preserveAspectRatio="none" width="100%" height="100%" overflow="visible" style="display: block;" viewBox="0 0 40 40" fill="none" xmlns="http://www.w3.org/2000/svg">
<g id="Frame">
<rect width="40" height="40" rx="10" fill="var(--fill-0, #404EED)"/>
<path id="Vector" d="M26.5844 13.7434C25.3734 13.1679 24.0748 12.7439 22.717 12.501C22.6923 12.4963 22.6675 12.5081 22.6548 12.5315C22.4878 12.8391 22.3028 13.2405 22.1732 13.556C20.7129 13.3295 19.26 13.3295 17.8295 13.556C17.7 13.2335 17.5083 12.8391 17.3405 12.5315C17.3278 12.5088 17.303 12.4971 17.2783 12.501C15.9213 12.7431 14.6227 13.1671 13.4109 13.7434C13.4004 13.7481 13.3914 13.7559 13.3855 13.7661C10.9223 17.5776 10.2475 21.2955 10.5785 24.9672C10.58 24.9852 10.5898 25.0023 10.6032 25.0132C12.2284 26.2494 13.8026 26.9998 15.3476 27.4973C15.3723 27.5051 15.3985 27.4957 15.4142 27.4746C15.7797 26.9577 16.1055 26.4126 16.3848 25.8394C16.4013 25.8059 16.3855 25.7661 16.3518 25.7528C15.8351 25.5497 15.3431 25.3022 14.8697 25.0211C14.8323 24.9985 14.8293 24.943 14.8638 24.9164C14.9634 24.8391 15.063 24.7587 15.1581 24.6775C15.1753 24.6626 15.1993 24.6595 15.2195 24.6689C18.329 26.1393 21.6954 26.1393 24.7682 24.6689C24.7884 24.6587 24.8124 24.6619 24.8303 24.6767C24.9255 24.7579 25.0251 24.8391 25.1254 24.9164C25.1598 24.9429 25.1576 24.9984 25.1202 25.0211C24.6468 25.3076 24.1548 25.5497 23.6373 25.752C23.6036 25.7652 23.5886 25.8058 23.6051 25.8394C23.8905 26.4118 24.2163 26.9569 24.575 27.4738C24.59 27.4957 24.6169 27.5051 24.6416 27.4972C26.1941 26.9998 27.7683 26.2494 29.3935 25.0132C29.4077 25.0023 29.4167 24.9859 29.4182 24.9679C29.8144 20.723 28.7546 17.0356 26.609 13.7668C26.6038 13.7559 26.5948 13.7481 26.5844 13.7434ZM16.8492 22.7315C15.9131 22.7315 15.1417 21.8413 15.1417 20.748C15.1417 19.6547 15.8981 18.7646 16.8492 18.7646C17.8078 18.7646 18.5717 19.6626 18.5567 20.748C18.5567 21.8413 17.8003 22.7315 16.8492 22.7315ZM23.1625 22.7315C22.2264 22.7315 21.455 21.8413 21.455 20.748C21.455 19.6547 22.2114 18.7646 23.1625 18.7646C24.1212 18.7646 24.885 19.6626 24.8701 20.748C24.8701 21.8413 24.1212 22.7315 23.1625 22.7315Z" fill="var(--fill-0, white)"/>
</g>
</svg>
