<svg width="104" height="20" viewBox="0 0 104 20" fill="none" xmlns="http://www.w3.org/2000/svg">
<path d="M22.0197 1.675C20.3371 0.8925 18.5379 0.323815 16.6569 0C16.4259 0.415119 16.156 0.973462 15.9699 1.41762C13.9704 1.11874 11.9892 1.11874 10.0264 1.41762C9.84038 0.973462 9.56437 0.415119 9.3313 0C7.44827 0.323815 5.64702 0.894589 3.96435 1.67914C0.570406 6.77669 -0.349637 11.7476 0.110386 16.648C2.36143 18.3188 4.54296 19.3338 6.68768 19.9979C7.21722 19.2736 7.6895 18.5035 8.09636 17.692C7.32148 17.3994 6.57932 17.0382 5.87806 16.6189C6.0641 16.482 6.24608 16.3387 6.42189 16.1914C10.6991 18.1798 15.3463 18.1798 19.5724 16.1914C19.7503 16.3387 19.9322 16.482 20.1162 16.6189C19.4129 17.0403 18.6687 17.4014 17.8938 17.6941C18.3007 18.5035 18.7709 19.2757 19.3025 20C21.4493 19.3358 23.6329 18.3209 25.8839 16.648C26.4237 10.9672 24.9618 6.04194 22.0197 1.675ZM8.67907 13.6343C7.3951 13.6343 6.34215 12.4429 6.34215 10.9921C6.34215 9.54132 7.37262 8.34788 8.67907 8.34788C9.98555 8.34788 11.0385 9.53923 11.016 10.9921C11.018 12.4429 9.98555 13.6343 8.67907 13.6343ZM17.3152 13.6343C16.0313 13.6343 14.9783 12.4429 14.9783 10.9921C14.9783 9.54132 16.0087 8.34788 17.3152 8.34788C18.6217 8.34788 19.6746 9.53923 19.6522 10.9921C19.6522 12.4429 18.6217 13.6343 17.3152 13.6343Z" fill="white"/>
<path d="M34.9309 5.10217H40.5124C41.8579 5.10217 42.9946 5.31595 43.9271 5.74144C44.8571 6.1669 45.5544 6.76052 46.0166 7.52017C46.4784 8.27983 46.7114 9.14948 46.7114 10.1291C46.7114 11.088 46.4702 11.9577 45.9877 12.736C45.5053 13.5164 44.7712 14.1329 43.7838 14.5874C42.7964 15.042 41.5735 15.2703 40.1118 15.2703H34.9309V5.10217ZM40.0545 12.6862C40.9603 12.6862 41.6576 12.4558 42.144 11.9971C42.6307 11.5364 42.8741 10.9095 42.8741 10.1146C42.8741 9.37778 42.6571 8.79039 42.2238 8.35038C41.7905 7.91036 41.1342 7.6883 40.2569 7.6883H38.5109V12.6862H40.0545Z" fill="white"/>
<path d="M55.0675 15.2579C54.2947 15.0545 53.5973 14.7597 52.978 14.3716V11.9598C53.4462 12.3272 54.0737 12.6302 54.8609 12.8689C55.648 13.1055 56.4088 13.2238 57.1446 13.2238C57.4881 13.2238 57.7479 13.1782 57.9235 13.0868C58.0996 12.9955 58.1876 12.8855 58.1876 12.7589C58.1876 12.6136 58.1405 12.4932 58.0443 12.3957C57.9481 12.2981 57.7621 12.2172 57.4863 12.1487L55.7688 11.7564C54.7853 11.524 54.088 11.2022 53.6732 10.7892C53.2581 10.3782 53.0514 9.83858 53.0514 9.17027C53.0514 8.60778 53.2314 8.12006 53.5955 7.70285C53.9572 7.28567 54.4725 6.96395 55.1409 6.73771C55.8098 6.50941 56.5905 6.39526 57.4881 6.39526C58.2895 6.39526 59.0235 6.48242 59.6924 6.65678C60.3608 6.83114 60.9128 7.0532 61.3525 7.32509V9.60614C60.9025 9.33424 60.3872 9.12047 59.7985 8.95854C59.2117 8.79874 58.6088 8.71987 57.987 8.71987C57.0894 8.71987 56.6418 8.87553 56.6418 9.18479C56.6418 9.3301 56.7113 9.43801 56.8503 9.51065C56.9892 9.58329 57.2447 9.65802 57.615 9.7369L59.046 9.99841C59.9806 10.1624 60.6776 10.4509 61.1355 10.8618C61.5937 11.2728 61.8225 11.8809 61.8225 12.6863C61.8225 13.5683 61.4444 14.2678 60.6858 14.7867C59.9272 15.3056 58.8518 15.565 57.4575 15.565C56.6375 15.563 55.8404 15.4613 55.0675 15.2579Z" fill="white"/>
<path d="M65.2007 14.9526C64.3811 14.5458 63.7615 13.9937 63.3485 13.2963C62.9355 12.599 62.7271 11.8144 62.7271 10.9427C62.7271 10.071 62.9416 9.29055 63.3709 8.60353C63.8003 7.91652 64.43 7.37688 65.2602 6.9846C66.0901 6.59233 67.0818 6.39722 68.237 6.39722C69.668 6.39722 70.856 6.70233 71.8006 7.31253V9.97132C71.4675 9.73885 71.0787 9.54997 70.6351 9.40469C70.1915 9.25941 69.7172 9.18674 69.2101 9.18674C68.3229 9.18674 67.6298 9.35072 67.1288 9.68073C66.6278 10.0107 66.3766 10.4404 66.3766 10.9738C66.3766 11.4968 66.6196 11.9244 67.1064 12.2607C67.5931 12.5948 68.2983 12.7629 69.2244 12.7629C69.7008 12.7629 70.1712 12.6924 70.6351 12.5533C71.0973 12.4122 71.496 12.2399 71.8292 12.0365V14.6081C70.7805 15.2473 69.564 15.567 68.1796 15.567C67.0144 15.5628 66.0206 15.3594 65.2007 14.9526Z" fill="white"/>
<path d="M75.3702 14.9528C74.5442 14.546 73.9146 13.9897 73.4809 13.2819C73.0476 12.5742 72.8289 11.7855 72.8289 10.9137C72.8289 10.042 73.0455 9.26367 73.4809 8.58084C73.9164 7.89797 74.5421 7.36247 75.3641 6.97434C76.1837 6.58621 77.1633 6.39319 78.2978 6.39319C79.4327 6.39319 80.4119 6.58621 81.2318 6.97434C82.0518 7.36247 82.6775 7.89383 83.1068 8.57252C83.5362 9.25124 83.7507 10.0296 83.7507 10.9117C83.7507 11.7834 83.5362 12.5721 83.1068 13.2799C82.6775 13.9876 82.0496 14.5439 81.2236 14.9507C80.3977 15.3575 79.4224 15.5609 78.296 15.5609C77.1693 15.5609 76.194 15.3596 75.3702 14.9528ZM79.7189 12.3749C80.0666 12.0221 80.2423 11.5551 80.2423 10.9739C80.2423 10.3928 80.0684 9.92993 79.7189 9.58745C79.3714 9.24292 78.8968 9.07065 78.296 9.07065C77.6846 9.07065 77.206 9.24292 76.8565 9.58745C76.509 9.93202 76.3351 10.3928 76.3351 10.9739C76.3351 11.5551 76.509 12.0221 76.8565 12.3749C77.2042 12.7278 77.6846 12.9063 78.296 12.9063C78.8968 12.9042 79.3714 12.7278 79.7189 12.3749Z" fill="white"/>
<path d="M92.3501 6.93278V10.071C91.9863 9.82817 91.5159 9.70779 90.9333 9.70779C90.1704 9.70779 89.5818 9.94235 89.1727 10.4114C88.7619 10.8805 88.5573 11.6111 88.5573 12.599V15.2723H85.051V6.77298H88.486V9.47535C88.676 8.48736 88.9849 7.75888 89.41 7.28769C89.8333 6.81864 90.381 6.58411 91.0477 6.58411C91.5526 6.58411 91.9863 6.70034 92.3501 6.93278Z" fill="white"/>
<path d="M104 4.81158V15.2724H100.493V13.3691C100.197 14.0852 99.7473 14.631 99.1422 15.0046C98.5368 15.3762 97.7885 15.5629 96.9013 15.5629C96.1081 15.5629 95.4172 15.3678 94.826 14.9756C94.2352 14.5833 93.7795 14.0457 93.4584 13.3629C93.1395 12.68 92.9777 11.9079 92.9777 11.0445C92.9677 10.1541 93.1373 9.35498 93.4869 8.64721C93.8347 7.93944 94.3271 7.38737 94.961 6.99091C95.595 6.59449 96.3187 6.39524 97.1304 6.39524C98.8009 6.39524 99.9212 7.13205 100.493 8.60361V4.81158H104ZM99.9703 12.3168C100.328 11.9639 100.506 11.5053 100.506 10.9449C100.506 10.4031 100.332 9.96103 99.9846 9.62273C99.6368 9.28443 99.1604 9.11421 98.5614 9.11421C97.9706 9.11421 97.4985 9.28648 97.1446 9.63101C96.7908 9.97558 96.6151 10.4218 96.6151 10.9739C96.6151 11.526 96.7908 11.9764 97.1446 12.3251C97.4985 12.6738 97.9646 12.8481 98.5472 12.8481C99.138 12.8461 99.6122 12.6696 99.9703 12.3168Z" fill="white"/>
<path d="M49.6661 7.67784C50.6314 7.67784 51.4143 6.96416 51.4143 6.0838C51.4143 5.20345 50.6314 4.48981 49.6661 4.48981C48.7005 4.48981 47.918 5.20345 47.918 6.0838C47.918 6.96416 48.7005 7.67784 49.6661 7.67784Z" fill="white"/>
<path d="M47.9165 8.77588C48.9876 9.24494 50.3167 9.26569 51.4125 8.77588V15.318H47.9165V8.77588Z" fill="white"/>
</svg>
