<svg width="24" height="24" viewBox="0 0 24 24" fill="none" xmlns="http://www.w3.org/2000/svg">
<path d="M16.1973 6.55176C16.7703 6.55177 18.5255 6.60358 19.8896 8.04199C19.6353 8.2516 19.3331 8.52951 19.0449 8.86816C18.3244 9.71491 17.6162 10.9974 17.6162 12.7549C17.6162 14.7837 18.5184 16.1746 19.4268 17.0469C19.8718 17.4742 20.3222 17.7813 20.6777 17.9873C20.6297 18.1144 20.5738 18.2596 20.5068 18.418C20.2542 19.0153 19.8676 19.7983 19.3271 20.585C18.8052 21.334 18.3232 22.0048 17.791 22.4941C17.2727 22.9707 16.7668 23.2188 16.1992 23.2188C15.5521 23.2187 15.1655 23.0438 14.6191 22.8066C14.0404 22.5555 13.3502 22.2705 12.252 22.2705C11.178 22.2705 10.4414 22.5638 9.83496 22.8193C9.23342 23.0728 8.83215 23.2499 8.25879 23.25C7.76576 23.25 7.30296 23.0332 6.78418 22.5547C6.25177 22.0635 5.73357 21.3655 5.12598 20.5156H5.125C3.81683 18.6584 2.7501 15.7446 2.75 13.0049C2.75 8.71194 5.49682 6.61426 8.03711 6.61426C8.67755 6.61428 9.29084 6.82389 9.94043 7.08203C10.2469 7.20381 10.5896 7.34704 10.9043 7.45312C11.2215 7.56006 11.5824 7.65523 11.9531 7.65527C12.3199 7.65527 12.6879 7.55207 13.0068 7.44238C13.3245 7.33315 13.6925 7.17997 14.0225 7.05273C14.7236 6.78238 15.4385 6.55176 16.1973 6.55176ZM15.8438 0.878906C15.7468 1.77599 15.3332 2.66912 14.7646 3.3418L14.7598 3.34766L14.7549 3.35449C14.4293 3.7568 13.9701 4.1222 13.4697 4.38574C13.1228 4.56842 12.7793 4.68725 12.4717 4.74512C12.5556 3.96452 12.924 3.18177 13.3691 2.58887L13.5918 2.31543L13.5967 2.30957C14.1714 1.64501 15.0341 1.114 15.8438 0.878906Z" stroke="white" stroke-opacity="0.5" stroke-width="1.5"/>
</svg>
