<svg width="20" height="20" viewBox="0 0 20 20" fill="none" xmlns="http://www.w3.org/2000/svg">
<g clip-path="url(#clip0_1_69)">
<path d="M16.4018 10.8875V4.91342C16.4018 2.86299 14.7438 1.20081 12.6986 1.20081H4.48441C2.43922 1.20077 0.78125 2.86299 0.78125 4.91342V11.0967C0.78125 13.1471 2.43922 14.8093 4.48441 14.8093H6.03223V15.8251C6.03223 16.5909 6.85738 17.071 7.52055 16.6911L10.8053 14.8093" stroke="#7B4029" stroke-width="1.54545" stroke-miterlimit="10" stroke-linecap="round" stroke-linejoin="round"/>
<path d="M7.09009 6.2402C7.09009 6.1598 7.09567 6.0807 7.10645 6.00324C7.22325 5.16598 7.94997 4.52418 8.82294 4.5418C9.70606 4.55961 10.4376 5.26727 10.4834 6.1498C10.5342 7.12785 9.75556 7.93891 8.7879 7.93891V9.00582" stroke="#7B4029" stroke-width="1.54545" stroke-miterlimit="10" stroke-linecap="round" stroke-linejoin="round"/>
<circle cx="8.78784" cy="11.8321" r="0.78125" fill="#7B4029"/>
<path d="M18.1572 12.2459C17.4015 11.2952 16.2295 10.6896 14.9298 10.7091C12.7136 10.7424 10.9297 12.5596 10.9486 14.7892C10.9671 16.9587 12.7192 18.7431 14.887 18.7979C15.6645 18.8175 16.3938 18.6175 17.0175 18.2555L18.2616 18.5229C18.8445 18.6482 19.3508 18.1073 19.1879 17.5336L18.8026 16.1773" stroke="#7B4029" stroke-width="1.54545" stroke-miterlimit="10" stroke-linecap="round" stroke-linejoin="round"/>
</g>
<defs>
<clipPath id="clip0_1_69">
<rect width="20" height="20" fill="white"/>
</clipPath>
</defs>
</svg>
