<svg width="20" height="20" viewBox="0 0 20 20" fill="none" xmlns="http://www.w3.org/2000/svg">
<path fill-rule="evenodd" clip-rule="evenodd" d="M3.48837 19.0909H15.5814C16.7535 19.0909 17.8772 18.6247 18.706 17.794C19.5349 16.9632 20 15.8369 20 14.662V3.47322C20 2.7935 19.7302 2.14082 19.2512 1.6597C18.7712 1.17951 18.12 0.909119 17.4419 0.909119H8.13953C6.72651 0.909119 5.5814 2.0569 5.5814 3.47322V14.662C5.5814 15.048 5.89395 15.3613 6.27907 15.3613C6.66419 15.3613 6.97674 15.048 6.97674 14.662V3.47322C6.97674 2.82986 7.49767 2.30772 8.13953 2.30772H17.4419C17.7507 2.30772 18.0456 2.4308 18.2642 2.64898C18.4819 2.86809 18.6047 3.16366 18.6047 3.47322V14.662C18.6047 15.4658 18.2865 16.2369 17.7191 16.8047C17.1526 17.3735 16.3833 17.6923 15.5814 17.6923C10.906 17.6923 3.48837 17.6923 3.48837 17.6923C3.10326 17.6923 2.7907 18.0056 2.7907 18.3916C2.7907 18.7776 3.10326 19.0909 3.48837 19.0909Z" fill="#7B4029"/>
<path fill-rule="evenodd" clip-rule="evenodd" d="M3.48837 19.0909C5.41488 19.0909 6.97674 17.5254 6.97674 15.5944V5.33802C6.97674 4.95201 6.66419 4.63872 6.27907 4.63872H2.55814C1.14512 4.63872 0 5.78651 0 7.20283V15.5944C0 17.5254 1.56186 19.0909 3.48837 19.0909ZM3.48837 17.6923C2.33209 17.6923 1.39535 16.7534 1.39535 15.5944V7.20283C1.39535 6.55947 1.91628 6.03732 2.55814 6.03732H5.58139V15.5944C5.58139 16.7534 4.64465 17.6923 3.48837 17.6923Z" fill="#7B4029"/>
<path fill-rule="evenodd" clip-rule="evenodd" d="M10.4651 6.03732H15.1163C15.5014 6.03732 15.814 5.72404 15.814 5.33802C15.814 4.95201 15.5014 4.63872 15.1163 4.63872H10.4651C10.08 4.63872 9.76744 4.95201 9.76744 5.33802C9.76744 5.72404 10.08 6.03732 10.4651 6.03732Z" fill="#7B4029"/>
<path fill-rule="evenodd" clip-rule="evenodd" d="M9.53488 9.76693H16.0465C16.4316 9.76693 16.7442 9.45364 16.7442 9.06763C16.7442 8.68161 16.4316 8.36833 16.0465 8.36833H9.53488C9.14977 8.36833 8.83721 8.68161 8.83721 9.06763C8.83721 9.45364 9.14977 9.76693 9.53488 9.76693Z" fill="#7B4029"/>
<path fill-rule="evenodd" clip-rule="evenodd" d="M9.53488 12.5641H16.0465C16.4316 12.5641 16.7442 12.2508 16.7442 11.8648C16.7442 11.4788 16.4316 11.1655 16.0465 11.1655H9.53488C9.14977 11.1655 8.83721 11.4788 8.83721 11.8648C8.83721 12.2508 9.14977 12.5641 9.53488 12.5641Z" fill="#7B4029"/>
<path fill-rule="evenodd" clip-rule="evenodd" d="M9.53488 15.3613H16.0465C16.4316 15.3613 16.7442 15.048 16.7442 14.662C16.7442 14.276 16.4316 13.9627 16.0465 13.9627H9.53488C9.14977 13.9627 8.83721 14.276 8.83721 14.662C8.83721 15.048 9.14977 15.3613 9.53488 15.3613Z" fill="#7B4029"/>
</svg>
