<svg width="20" height="20" viewBox="0 0 20 20" fill="none" xmlns="http://www.w3.org/2000/svg">
<path d="M17.1585 0.909119H2.84154C2.08842 0.91038 1.36649 1.22026 0.833887 1.77087C0.301281 2.32148 0.00142383 3.06794 0 3.84673V19.2046C9.67878e-05 19.3557 0.0418215 19.5037 0.12029 19.6312C0.198758 19.7586 0.310723 19.8604 0.443077 19.9245C0.545034 19.9743 0.65644 20.0002 0.769231 20C0.949059 20.0002 1.12325 19.9352 1.26154 19.8163L5.66308 16.0228H17.1585C17.9116 16.0215 18.6335 15.7116 19.1661 15.161C19.6987 14.6104 19.9986 13.8639 20 13.0851V3.84673C19.9986 3.06794 19.6987 2.32148 19.1661 1.77087C18.6335 1.22026 17.9116 0.91038 17.1585 0.909119ZM18.4615 13.0851C18.4601 13.442 18.3224 13.7838 18.0783 14.0361C17.8342 14.2883 17.5036 14.4306 17.1585 14.4318H5.38462C5.20479 14.4317 5.0306 14.4967 4.89231 14.6156L1.53846 17.5063V3.84673C1.53988 3.48988 1.67765 3.14807 1.92174 2.89581C2.16583 2.64355 2.49645 2.50128 2.84154 2.50003H17.1585C17.5036 2.50128 17.8342 2.64355 18.0783 2.89581C18.3224 3.14807 18.4601 3.48988 18.4615 3.84673V13.0851Z" fill="#7B4029"/>
<path d="M14.6154 5.68185H5.38462C5.1806 5.68185 4.98495 5.76565 4.84069 5.91483C4.69643 6.06401 4.61538 6.26633 4.61538 6.4773C4.61538 6.68827 4.69643 6.89059 4.84069 7.03977C4.98495 7.18895 5.1806 7.27276 5.38462 7.27276H14.6154C14.8194 7.27276 15.0151 7.18895 15.1593 7.03977C15.3036 6.89059 15.3846 6.68827 15.3846 6.4773C15.3846 6.26633 15.3036 6.06401 15.1593 5.91483C15.0151 5.76565 14.8194 5.68185 14.6154 5.68185Z" fill="#7B4029"/>
<path d="M10 9.65912H5.38462C5.1806 9.65912 4.98495 9.74292 4.84069 9.8921C4.69643 10.0413 4.61538 10.2436 4.61538 10.4546C4.61538 10.6655 4.69643 10.8679 4.84069 11.017C4.98495 11.1662 5.1806 11.25 5.38462 11.25H10C10.204 11.25 10.3997 11.1662 10.5439 11.017C10.6882 10.8679 10.7692 10.6655 10.7692 10.4546C10.7692 10.2436 10.6882 10.0413 10.5439 9.8921C10.3997 9.74292 10.204 9.65912 10 9.65912Z" fill="#7B4029"/>
</svg>
