<svg width="20" height="20" viewBox="0 0 20 20" fill="none" xmlns="http://www.w3.org/2000/svg">
<path fill-rule="evenodd" clip-rule="evenodd" d="M10.3679 1.94025C7.82288 1.94025 5.75977 4.00336 5.75977 6.54834C5.75977 9.09331 7.82288 11.1564 10.3679 11.1564C12.9128 11.1564 14.976 9.09331 14.976 6.54834C14.976 4.00336 12.9128 1.94025 10.3679 1.94025ZM7.21495 6.54834C7.21495 4.80703 8.62656 3.39543 10.3679 3.39543C12.1092 3.39543 13.5208 4.80703 13.5208 6.54834C13.5208 8.28963 12.1092 9.70125 10.3679 9.70125C8.62656 9.70125 7.21495 8.28963 7.21495 6.54834Z" fill="#7B4029"/>
<path fill-rule="evenodd" clip-rule="evenodd" d="M14.6038 0.0768788C13.7157 -8.89043e-06 12.6085 -4.95368e-06 11.1962 8.12705e-08H9.53957C8.12725 -4.95368e-06 7.02002 -8.89043e-06 6.13196 0.0768788C5.22738 0.155198 4.48234 0.317411 3.81404 0.682334C2.87547 1.19483 2.10401 1.9663 1.59151 2.90486C1.22659 3.57316 1.06438 4.31819 0.986058 5.22278C0.909171 6.11083 0.909175 7.21807 0.90918 8.63038V11.6905C0.90918 11.7472 0.90918 11.7818 0.909505 11.812C0.930367 13.745 1.93375 15.4411 3.4409 16.4252C4.30131 16.987 5.32689 17.3178 6.4272 17.3296C6.45731 17.3299 6.49184 17.3299 6.54845 17.3299H6.55987H6.56106C6.62605 17.3303 6.68819 17.3567 6.73352 17.4034L6.73431 17.4041L7.08358 17.7671C7.70985 18.4177 8.23114 18.9593 8.70178 19.3314C9.19791 19.7236 9.72519 20 10.3679 20C11.0106 20 11.5379 19.7236 12.034 19.3314C12.5046 18.9593 13.0259 18.4177 13.6522 17.7671L14.0023 17.4034C14.0476 17.3567 14.1097 17.3303 14.1747 17.3299H14.176H14.1873C14.244 17.3299 14.2785 17.3299 14.3086 17.3296C15.4089 17.3178 16.4345 16.987 17.2949 16.4252C18.8021 15.4411 19.8054 13.745 19.8262 11.812C19.8266 11.7817 19.8266 11.747 19.8266 11.6898V8.63034C19.8266 7.21805 19.8266 6.11083 19.7497 5.22278C19.6714 4.3182 19.5092 3.57316 19.1442 2.90486C18.6317 1.9663 17.8603 1.19483 16.9218 0.682334C16.2535 0.317411 15.5084 0.155198 14.6038 0.0768788ZM4.51143 1.95952C4.92974 1.73111 5.44882 1.59666 6.25748 1.52664C7.07544 1.45582 8.11979 1.45519 9.57415 1.45519H11.1617C12.616 1.45519 13.6603 1.45582 14.4783 1.52664C15.2869 1.59666 15.8061 1.73111 16.2244 1.95952C16.9181 2.33832 17.4882 2.90854 17.8671 3.60226C18.0955 4.02056 18.2299 4.53964 18.2999 5.34831C18.3708 6.16627 18.3714 7.21062 18.3714 8.66498V11.6851V11.7172C18.3714 11.7585 18.3713 11.779 18.3712 11.7962C18.3589 12.9318 17.8885 13.9572 17.1344 14.6963C16.3117 13.4415 14.8925 12.6116 13.2783 12.6116H7.45752C5.84329 12.6116 4.42409 13.4415 3.60132 14.6963C2.84723 13.9572 2.37686 12.9318 2.36461 11.7962C2.36437 11.775 2.36436 11.7489 2.36436 11.6851V8.66497C2.36436 7.21061 2.36501 6.16627 2.43582 5.34831C2.50584 4.53964 2.64029 4.02056 2.8687 3.60226C3.2475 2.90854 3.81772 2.33832 4.51143 1.95952ZM13.2783 14.0668C14.3913 14.0668 15.3709 14.6438 15.9322 15.5165C15.4313 15.7409 14.8772 15.8682 14.2929 15.8745C14.2716 15.8747 14.2455 15.8747 14.1818 15.8747L14.1666 15.8748C13.7116 15.8773 13.2767 16.0624 12.9594 16.3884L12.9489 16.3993L12.6396 16.7208C11.9681 17.4182 11.5151 17.8867 11.1315 18.1898C10.7645 18.48 10.5507 18.5448 10.3679 18.5448C10.1851 18.5448 9.97124 18.48 9.60424 18.1898C9.22065 17.8867 8.7676 17.4182 8.09627 16.7208L7.78684 16.3993L7.77638 16.3884C7.45904 16.0624 7.0241 15.8773 6.5691 15.8748L6.55405 15.8747C6.49024 15.8747 6.46415 15.8747 6.4429 15.8745C5.8586 15.8682 5.30451 15.7409 4.80359 15.5165C5.36487 14.6438 6.34444 14.0668 7.45752 14.0668H13.2783Z" fill="#7B4029"/>
</svg>
