<svg width="20" height="20" viewBox="0 0 20 20" fill="none" xmlns="http://www.w3.org/2000/svg">
<path fill-rule="evenodd" clip-rule="evenodd" d="M2.72729 3.38846C2.72729 2.01916 3.81267 0.909119 5.15154 0.909119H11.7549C12.3978 0.909119 13.0144 1.17033 13.469 1.6353L16.5627 4.79929C17.0173 5.26426 17.2727 5.89489 17.2727 6.55245V16.6116C17.2727 17.9809 16.1874 19.0909 14.8485 19.0909H5.15154C3.81267 19.0909 2.72729 17.9809 2.72729 16.6116V3.38846ZM5.15154 2.56201C4.70525 2.56201 4.34346 2.93203 4.34346 3.38846V16.6116C4.34346 17.068 4.70525 17.438 5.15154 17.438H14.8485C15.2948 17.438 15.6566 17.068 15.6566 16.6116V7.52069H13.2323C11.8934 7.52069 10.8081 6.41065 10.8081 5.04135V2.56201H5.15154ZM12.4243 2.90433L15.3219 5.8678H13.2323C12.786 5.8678 12.4243 5.49778 12.4243 5.04135V2.90433ZM7.57578 11.6529C7.12949 11.6529 6.7677 12.0229 6.7677 12.4794C6.7677 12.9358 7.12949 13.3058 7.57578 13.3058H12.4243C12.8706 13.3058 13.2323 12.9358 13.2323 12.4794C13.2323 12.0229 12.8706 11.6529 12.4243 11.6529H7.57578Z" fill="#7B4029"/>
</svg>
