<svg width="40" height="40" viewBox="0 0 40 40" fill="none" xmlns="http://www.w3.org/2000/svg">
<rect width="40" height="40" rx="20" fill="#3A281B"/>
<g clip-path="url(#clip0_1_712)">
<path d="M19.886 19.5779C20.9448 19.5779 21.8617 19.1981 22.6108 18.4488C23.36 17.6997 23.7397 16.7831 23.7397 15.7241C23.7397 14.6655 23.36 13.7488 22.6107 12.9994C21.8615 12.2504 20.9447 11.8706 19.886 11.8706C18.827 11.8706 17.9104 12.2504 17.1613 12.9995C16.4121 13.7486 16.0322 14.6654 16.0322 15.7241C16.0322 16.7831 16.4121 17.6998 17.1614 18.4489C17.9106 19.198 18.8274 19.5779 19.886 19.5779Z" fill="#F3ECE0"/>
<path d="M26.629 24.1738C26.6074 23.862 26.5637 23.522 26.4994 23.1628C26.4344 22.801 26.3508 22.459 26.2507 22.1464C26.1473 21.8232 26.0067 21.5041 25.8329 21.1984C25.6525 20.881 25.4406 20.6046 25.2028 20.3772C24.9541 20.1393 24.6497 19.948 24.2976 19.8085C23.9468 19.6697 23.558 19.5994 23.1421 19.5994C22.9788 19.5994 22.8208 19.6664 22.5157 19.865C22.328 19.9874 22.1084 20.129 21.8633 20.2856C21.6537 20.4192 21.3698 20.5443 21.019 20.6576C20.6769 20.7683 20.3295 20.8245 19.9866 20.8245C19.6437 20.8245 19.2964 20.7683 18.9539 20.6576C18.6035 20.5444 18.3196 20.4193 18.1102 20.2858C17.8674 20.1306 17.6477 19.989 17.4572 19.8649C17.1525 19.6663 16.9944 19.5992 16.8311 19.5992C16.415 19.5992 16.0264 19.6697 15.6757 19.8086C15.3239 19.9479 15.0193 20.1392 14.7704 20.3773C14.5327 20.6049 14.3207 20.8811 14.1405 21.1984C13.9668 21.5041 13.8262 21.8231 13.7227 22.1465C13.6227 22.4591 13.5391 22.801 13.4741 23.1628C13.4098 23.5215 13.3661 23.8617 13.3445 24.1742C13.3232 24.4803 13.3125 24.7981 13.3125 25.119C13.3125 25.9542 13.578 26.6303 14.1016 27.129C14.6187 27.6211 15.3029 27.8707 16.1349 27.8707H23.839C24.671 27.8707 25.355 27.6212 25.8722 27.129C26.3959 26.6307 26.6614 25.9544 26.6614 25.1189C26.6613 24.7965 26.6504 24.4785 26.629 24.1738Z" fill="#F3ECE0"/>
</g>
<defs>
<clipPath id="clip0_1_712">
<rect width="16" height="16" fill="white" transform="translate(12 11.8706)"/>
</clipPath>
</defs>
</svg>
