<svg width="22" height="22" viewBox="0 0 22 22" fill="none" xmlns="http://www.w3.org/2000/svg">
<g clip-path="url(#clip0)">
<path d="M11 22C17.0751 22 22 17.0751 22 11C22 4.92487 17.0751 0 11 0C4.92487 0 0 4.92487 0 11C0 17.0751 4.92487 22 11 22Z" fill="#F0F0F0"/>
<path d="M0 2.14285H22V4.5H0V2.14285Z" fill="#0052B4"/>
<path d="M0 6.28571H22V8.64286H0V6.28571Z" fill="#0052B4"/>
<path d="M0 10.4286H22V12.7857H0V10.4286Z" fill="#0052B4"/>
<path d="M0 14.5714H22V16.9286H0V14.5714Z" fill="#0052B4"/>
<path d="M0 18.7143H22V21.0714H0V18.7143Z" fill="#0052B4"/>
<path d="M0 0H9.42857V9.42857H0V0Z" fill="#0052B4"/>
<path d="M3.14282 0H4.71425V9.42857H3.14282V0Z" fill="#F0F0F0"/>
<path d="M0 3.14285H9.42857V4.71428H0V3.14285Z" fill="#F0F0F0"/>
</g>
<defs>
<clipPath id="clip0">
<circle cx="11" cy="11" r="11" fill="white"/>
</clipPath>
</defs>
</svg>
